{
	"asset":{
		"generator":"Khronos glTF Blender I/O v4.4.56",
		"version":"2.0"
	},
	"scene":0,
	"scenes":[
		{
			"name":"Scene",
			"nodes":[
				0
			]
		}
	],
	"nodes":[
		{
			"mesh":0,
			"name":"Shield",
			"rotation":[
				0.7071068286895752,
				0,
				0,
				0.7071068286895752
			],
			"scale":[
				0.13059428334236145,
				0.02108290046453476,
				0.13059428334236145
			]
		}
	],
	"materials":[
		{
			"doubleSided":true,
			"name":"Armor",
			"pbrMetallicRoughness":{
				"baseColorFactor":[
					0.08848527073860168,
					0.08848527073860168,
					0.08848527073860168,
					1
				],
				"metallicFactor":0.7716535329818726,
				"roughnessFactor":0.7716535329818726
			}
		}
	],
	"meshes":[
		{
			"name":"Cylinder.001",
			"primitives":[
				{
					"attributes":{
						"POSITION":0,
						"NORMAL":1,
						"TEXCOORD_0":2
					},
					"indices":3,
					"material":0
				}
			]
		}
	],
	"accessors":[
		{
			"bufferView":0,
			"componentType":5126,
			"count":136,
			"max":[
				2.6816468238830566,
				4.814114570617676,
				2.6816461086273193
			],
			"min":[
				-2.6816468238830566,
				0.15835225582122803,
				-2.681647539138794
			],
			"type":"VEC3"
		},
		{
			"bufferView":1,
			"componentType":5126,
			"count":136,
			"type":"VEC3"
		},
		{
			"bufferView":2,
			"componentType":5126,
			"count":136,
			"type":"VEC2"
		},
		{
			"bufferView":3,
			"componentType":5123,
			"count":480,
			"type":"SCALAR"
		}
	],
	"bufferViews":[
		{
			"buffer":0,
			"byteLength":1632,
			"byteOffset":0,
			"target":34962
		},
		{
			"buffer":0,
			"byteLength":1632,
			"byteOffset":1632,
			"target":34962
		},
		{
			"buffer":0,
			"byteLength":1088,
			"byteOffset":3264,
			"target":34962
		},
		{
			"buffer":0,
			"byteLength":960,
			"byteOffset":4352,
			"target":34963
		}
	],
	"buffers":[
		{
			"byteLength":5312,
			"uri":"Shield.bin"
		}
	]
}
