{
	"asset":{
		"generator":"Khronos glTF Blender I/O v4.4.56",
		"version":"2.0"
	},
	"scene":0,
	"scenes":[
		{
			"name":"Scene",
			"nodes":[
				0
			]
		}
	],
	"nodes":[
		{
			"mesh":0,
			"name":"Sword"
		}
	],
	"materials":[
		{
			"doubleSided":true,
			"name":"LeatherGloves",
			"pbrMetallicRoughness":{
				"baseColorFactor":[
					0.029556674882769585,
					0.015996308997273445,
					0.009134063497185707,
					1
				],
				"metallicFactor":0.5
			}
		},
		{
			"doubleSided":true,
			"name":"Metal",
			"pbrMetallicRoughness":{
				"baseColorFactor":[
					0.800000011920929,
					0.800000011920929,
					0.800000011920929,
					1
				],
				"metallicFactor":0.8425197005271912,
				"roughnessFactor":0.21653543412685394
			}
		}
	],
	"meshes":[
		{
			"name":"Cube.001",
			"primitives":[
				{
					"attributes":{
						"POSITION":0,
						"NORMAL":1,
						"TEXCOORD_0":2
					},
					"indices":3,
					"material":0
				},
				{
					"attributes":{
						"POSITION":4,
						"NORMAL":5,
						"TEXCOORD_0":6
					},
					"indices":7,
					"material":1
				}
			]
		}
	],
	"accessors":[
		{
			"bufferView":0,
			"componentType":5126,
			"count":26,
			"max":[
				0.021962394937872887,
				0.08653369545936584,
				0.01606171764433384
			],
			"min":[
				-0.021962394937872887,
				-0.08751609921455383,
				-0.01606171764433384
			],
			"type":"VEC3"
		},
		{
			"bufferView":1,
			"componentType":5126,
			"count":26,
			"type":"VEC3"
		},
		{
			"bufferView":2,
			"componentType":5126,
			"count":26,
			"type":"VEC2"
		},
		{
			"bufferView":3,
			"componentType":5123,
			"count":48,
			"type":"SCALAR"
		},
		{
			"bufferView":4,
			"componentType":5126,
			"count":104,
			"max":[
				0.13345114886760712,
				0.700059175491333,
				0.01606171764433384
			],
			"min":[
				-0.13345114886760712,
				0.08653369545936584,
				-0.01606171764433384
			],
			"type":"VEC3"
		},
		{
			"bufferView":5,
			"componentType":5126,
			"count":104,
			"type":"VEC3"
		},
		{
			"bufferView":6,
			"componentType":5126,
			"count":104,
			"type":"VEC2"
		},
		{
			"bufferView":7,
			"componentType":5123,
			"count":168,
			"type":"SCALAR"
		}
	],
	"bufferViews":[
		{
			"buffer":0,
			"byteLength":312,
			"byteOffset":0,
			"target":34962
		},
		{
			"buffer":0,
			"byteLength":312,
			"byteOffset":312,
			"target":34962
		},
		{
			"buffer":0,
			"byteLength":208,
			"byteOffset":624,
			"target":34962
		},
		{
			"buffer":0,
			"byteLength":96,
			"byteOffset":832,
			"target":34963
		},
		{
			"buffer":0,
			"byteLength":1248,
			"byteOffset":928,
			"target":34962
		},
		{
			"buffer":0,
			"byteLength":1248,
			"byteOffset":2176,
			"target":34962
		},
		{
			"buffer":0,
			"byteLength":832,
			"byteOffset":3424,
			"target":34962
		},
		{
			"buffer":0,
			"byteLength":336,
			"byteOffset":4256,
			"target":34963
		}
	],
	"buffers":[
		{
			"byteLength":4592,
			"uri":"Sword.bin"
		}
	]
}
