{
	"asset":{
		"generator":"Khronos glTF Blender I/O v4.4.56",
		"version":"2.0"
	},
	"scene":0,
	"scenes":[
		{
			"name":"Scene",
			"nodes":[
				0,
				1,
				2,
				3,
				4,
				5,
				6,
				7,
				8
			]
		}
	],
	"nodes":[
		{
			"mesh":0,
			"name":"Floor"
		},
		{
			"mesh":1,
			"name":"Outline1"
		},
		{
			"mesh":2,
			"name":"Outline2"
		},
		{
			"mesh":3,
			"name":"Door1",
			"scale":[
				2,
				2,
				2
			],
			"translation":[
				0.8528991937637329,
				-0.004780278075486422,
				-1.463051676750183
			]
		},
		{
			"mesh":4,
			"name":"Door2",
			"rotation":[
				0,
				0.7071068286895752,
				0,
				0.7071068286895752
			],
			"scale":[
				2,
				2,
				2
			],
			"translation":[
				-2.174532413482666,
				-0.004780278075486422,
				4.499536991119385
			]
		},
		{
			"mesh":5,
			"name":"Door3",
			"rotation":[
				0,
				0.7071068286895752,
				0,
				0.7071068286895752
			],
			"scale":[
				2,
				2,
				2
			],
			"translation":[
				-9.097317695617676,
				-0.004780278075486422,
				-2.998446226119995
			]
		},
		{
			"mesh":6,
			"name":"Door4",
			"rotation":[
				0,
				0.7071068286895752,
				0,
				0.7071068286895752
			],
			"scale":[
				2,
				2,
				2
			],
			"translation":[
				8.197940826416016,
				-0.004780278075486422,
				1.5017756223678589
			]
		},
		{
			"mesh":7,
			"name":"OpenDoor1",
			"scale":[
				2,
				2,
				2
			],
			"translation":[
				0.8528991937637329,
				-0.004780278075486422,
				-1.463051676750183
			]
		},
		{
			"mesh":8,
			"name":"OpenDoor2",
			"rotation":[
				0,
				-0.7071068286895752,
				0,
				0.7071068286895752
			],
			"scale":[
				2,
				2,
				2
			],
			"translation":[
				-2.17453670501709,
				-0.004780278075486422,
				4.499539852142334
			]
		}
	],
	"meshes":[
		{
			"name":"Plane.003",
			"primitives":[
				{
					"attributes":{
						"POSITION":0,
						"NORMAL":1,
						"TEXCOORD_0":2
					},
					"indices":3
				}
			]
		},
		{
			"name":"Plane",
			"primitives":[
				{
					"attributes":{
						"POSITION":4,
						"NORMAL":5
					},
					"indices":6
				}
			]
		},
		{
			"name":"Plane.005",
			"primitives":[
				{
					"attributes":{
						"POSITION":7,
						"NORMAL":8
					},
					"indices":9
				}
			]
		},
		{
			"name":"Cube.002",
			"primitives":[
				{
					"attributes":{
						"POSITION":10,
						"NORMAL":11,
						"TEXCOORD_0":12
					},
					"indices":13
				}
			]
		},
		{
			"name":"Cube.003",
			"primitives":[
				{
					"attributes":{
						"POSITION":14,
						"NORMAL":15,
						"TEXCOORD_0":16
					},
					"indices":17
				}
			]
		},
		{
			"name":"Cube.004",
			"primitives":[
				{
					"attributes":{
						"POSITION":18,
						"NORMAL":19,
						"TEXCOORD_0":20
					},
					"indices":13
				}
			]
		},
		{
			"name":"Cube.005",
			"primitives":[
				{
					"attributes":{
						"POSITION":21,
						"NORMAL":22,
						"TEXCOORD_0":23
					},
					"indices":13
				}
			]
		},
		{
			"name":"Cube.006",
			"primitives":[
				{
					"attributes":{
						"POSITION":24,
						"NORMAL":25,
						"TEXCOORD_0":26
					},
					"indices":17
				}
			]
		},
		{
			"name":"Cube.001",
			"primitives":[
				{
					"attributes":{
						"POSITION":27,
						"NORMAL":28,
						"TEXCOORD_0":29
					},
					"indices":13
				}
			]
		}
	],
	"accessors":[
		{
			"bufferView":0,
			"componentType":5126,
			"count":7593,
			"max":[
				8.216510772705078,
				0.00027979572769254446,
				5.9205193519592285
			],
			"min":[
				-9.106950759887695,
				-0.06867049634456635,
				-6.049788475036621
			],
			"type":"VEC3"
		},
		{
			"bufferView":1,
			"componentType":5126,
			"count":7593,
			"type":"VEC3"
		},
		{
			"bufferView":2,
			"componentType":5126,
			"count":7593,
			"type":"VEC2"
		},
		{
			"bufferView":3,
			"componentType":5123,
			"count":7917,
			"type":"SCALAR"
		},
		{
			"bufferView":4,
			"componentType":5126,
			"count":36830,
			"max":[
				8.516898155212402,
				3.0807933807373047,
				6.293803691864014
			],
			"min":[
				-9.398280143737793,
				-0.062126100063323975,
				-2.098248243331909
			],
			"type":"VEC3"
		},
		{
			"bufferView":5,
			"componentType":5126,
			"count":36830,
			"type":"VEC3"
		},
		{
			"bufferView":6,
			"componentType":5123,
			"count":38880,
			"type":"SCALAR"
		},
		{
			"bufferView":7,
			"componentType":5126,
			"count":55446,
			"max":[
				8.518367767333984,
				3.0800421237945557,
				3.64141845703125
			],
			"min":[
				-9.396682739257812,
				-0.06580730527639389,
				-6.307698726654053
			],
			"type":"VEC3"
		},
		{
			"bufferView":8,
			"componentType":5126,
			"count":55446,
			"type":"VEC3"
		},
		{
			"bufferView":9,
			"componentType":5123,
			"count":58680,
			"type":"SCALAR"
		},
		{
			"bufferView":10,
			"componentType":5126,
			"count":113,
			"max":[
				0.5276205539703369,
				1.601043939590454,
				0.21192684769630432
			],
			"min":[
				-0.5276205539703369,
				0,
				-0.21192684769630432
			],
			"type":"VEC3"
		},
		{
			"bufferView":11,
			"componentType":5126,
			"count":113,
			"type":"VEC3"
		},
		{
			"bufferView":12,
			"componentType":5126,
			"count":113,
			"type":"VEC2"
		},
		{
			"bufferView":13,
			"componentType":5123,
			"count":264,
			"type":"SCALAR"
		},
		{
			"bufferView":14,
			"componentType":5126,
			"count":94,
			"max":[
				0.5276205539703369,
				1.601043939590454,
				0.21192684769630432
			],
			"min":[
				-0.5276205539703369,
				0,
				-0.21192684769630432
			],
			"type":"VEC3"
		},
		{
			"bufferView":15,
			"componentType":5126,
			"count":94,
			"type":"VEC3"
		},
		{
			"bufferView":16,
			"componentType":5126,
			"count":94,
			"type":"VEC2"
		},
		{
			"bufferView":17,
			"componentType":5123,
			"count":240,
			"type":"SCALAR"
		},
		{
			"bufferView":18,
			"componentType":5126,
			"count":113,
			"max":[
				0.5276205539703369,
				1.601043939590454,
				0.21192684769630432
			],
			"min":[
				-0.5276205539703369,
				0,
				-0.21192684769630432
			],
			"type":"VEC3"
		},
		{
			"bufferView":19,
			"componentType":5126,
			"count":113,
			"type":"VEC3"
		},
		{
			"bufferView":20,
			"componentType":5126,
			"count":113,
			"type":"VEC2"
		},
		{
			"bufferView":21,
			"componentType":5126,
			"count":113,
			"max":[
				0.5276205539703369,
				1.601043939590454,
				0.21192684769630432
			],
			"min":[
				-0.5276205539703369,
				0,
				-0.21192684769630432
			],
			"type":"VEC3"
		},
		{
			"bufferView":22,
			"componentType":5126,
			"count":113,
			"type":"VEC3"
		},
		{
			"bufferView":23,
			"componentType":5126,
			"count":113,
			"type":"VEC2"
		},
		{
			"bufferView":24,
			"componentType":5126,
			"count":94,
			"max":[
				0.5276205539703369,
				1.601043939590454,
				0.21192684769630432
			],
			"min":[
				-0.5276205539703369,
				0,
				-0.21192684769630432
			],
			"type":"VEC3"
		},
		{
			"bufferView":25,
			"componentType":5126,
			"count":94,
			"type":"VEC3"
		},
		{
			"bufferView":26,
			"componentType":5126,
			"count":94,
			"type":"VEC2"
		},
		{
			"bufferView":27,
			"componentType":5126,
			"count":113,
			"max":[
				0.5276205539703369,
				1.601043939590454,
				0.21192684769630432
			],
			"min":[
				-0.5276205539703369,
				0,
				-0.21192684769630432
			],
			"type":"VEC3"
		},
		{
			"bufferView":28,
			"componentType":5126,
			"count":113,
			"type":"VEC3"
		},
		{
			"bufferView":29,
			"componentType":5126,
			"count":113,
			"type":"VEC2"
		}
	],
	"bufferViews":[
		{
			"buffer":0,
			"byteLength":91116,
			"byteOffset":0,
			"target":34962
		},
		{
			"buffer":0,
			"byteLength":91116,
			"byteOffset":91116,
			"target":34962
		},
		{
			"buffer":0,
			"byteLength":60744,
			"byteOffset":182232,
			"target":34962
		},
		{
			"buffer":0,
			"byteLength":15834,
			"byteOffset":242976,
			"target":34963
		},
		{
			"buffer":0,
			"byteLength":441960,
			"byteOffset":258812,
			"target":34962
		},
		{
			"buffer":0,
			"byteLength":441960,
			"byteOffset":700772,
			"target":34962
		},
		{
			"buffer":0,
			"byteLength":77760,
			"byteOffset":1142732,
			"target":34963
		},
		{
			"buffer":0,
			"byteLength":665352,
			"byteOffset":1220492,
			"target":34962
		},
		{
			"buffer":0,
			"byteLength":665352,
			"byteOffset":1885844,
			"target":34962
		},
		{
			"buffer":0,
			"byteLength":117360,
			"byteOffset":2551196,
			"target":34963
		},
		{
			"buffer":0,
			"byteLength":1356,
			"byteOffset":2668556,
			"target":34962
		},
		{
			"buffer":0,
			"byteLength":1356,
			"byteOffset":2669912,
			"target":34962
		},
		{
			"buffer":0,
			"byteLength":904,
			"byteOffset":2671268,
			"target":34962
		},
		{
			"buffer":0,
			"byteLength":528,
			"byteOffset":2672172,
			"target":34963
		},
		{
			"buffer":0,
			"byteLength":1128,
			"byteOffset":2672700,
			"target":34962
		},
		{
			"buffer":0,
			"byteLength":1128,
			"byteOffset":2673828,
			"target":34962
		},
		{
			"buffer":0,
			"byteLength":752,
			"byteOffset":2674956,
			"target":34962
		},
		{
			"buffer":0,
			"byteLength":480,
			"byteOffset":2675708,
			"target":34963
		},
		{
			"buffer":0,
			"byteLength":1356,
			"byteOffset":2676188,
			"target":34962
		},
		{
			"buffer":0,
			"byteLength":1356,
			"byteOffset":2677544,
			"target":34962
		},
		{
			"buffer":0,
			"byteLength":904,
			"byteOffset":2678900,
			"target":34962
		},
		{
			"buffer":0,
			"byteLength":1356,
			"byteOffset":2679804,
			"target":34962
		},
		{
			"buffer":0,
			"byteLength":1356,
			"byteOffset":2681160,
			"target":34962
		},
		{
			"buffer":0,
			"byteLength":904,
			"byteOffset":2682516,
			"target":34962
		},
		{
			"buffer":0,
			"byteLength":1128,
			"byteOffset":2683420,
			"target":34962
		},
		{
			"buffer":0,
			"byteLength":1128,
			"byteOffset":2684548,
			"target":34962
		},
		{
			"buffer":0,
			"byteLength":752,
			"byteOffset":2685676,
			"target":34962
		},
		{
			"buffer":0,
			"byteLength":1356,
			"byteOffset":2686428,
			"target":34962
		},
		{
			"buffer":0,
			"byteLength":1356,
			"byteOffset":2687784,
			"target":34962
		},
		{
			"buffer":0,
			"byteLength":904,
			"byteOffset":2689140,
			"target":34962
		}
	],
	"buffers":[
		{
			"byteLength":2690044,
			"uri":"test1.bin"
		}
	]
}
