{
	"asset":{
		"generator":"Khronos glTF Blender I/O v4.4.56",
		"version":"2.0"
	},
	"scene":0,
	"scenes":[
		{
			"name":"Scene",
			"nodes":[
				0,
				1,
				2,
				3,
				4,
				5,
				6,
				7
			]
		}
	],
	"nodes":[
		{
			"mesh":0,
			"name":"Floor",
			"scale":[
				2,
				2,
				2
			],
			"translation":[
				0.0014501214027404785,
				-0.004780278075486422,
				-0.0016091912984848022
			]
		},
		{
			"mesh":1,
			"name":"Plane",
			"scale":[
				2,
				2,
				2
			],
			"translation":[
				0.0014501214027404785,
				-0.004780278075486422,
				-0.0016091912984848022
			]
		},
		{
			"mesh":2,
			"name":"Door1",
			"scale":[
				2,
				2,
				2
			],
			"translation":[
				0.8528991937637329,
				-0.004780278075486422,
				-1.463051676750183
			]
		},
		{
			"mesh":3,
			"name":"Door2",
			"rotation":[
				0,
				0.7071068286895752,
				0,
				0.7071068286895752
			],
			"scale":[
				2,
				2,
				2
			],
			"translation":[
				-2.5939056873321533,
				-0.004780278075486422,
				4.499536991119385
			]
		},
		{
			"mesh":4,
			"name":"Door3",
			"rotation":[
				0,
				0.7071068286895752,
				0,
				0.7071068286895752
			],
			"scale":[
				2,
				2,
				2
			],
			"translation":[
				-8.660930633544922,
				-0.004780278075486422,
				-2.998446226119995
			]
		},
		{
			"mesh":5,
			"name":"Door4",
			"rotation":[
				0,
				0.7071068286895752,
				0,
				0.7071068286895752
			],
			"scale":[
				2,
				2,
				2
			],
			"translation":[
				7.799499988555908,
				-0.004780278075486422,
				1.5017756223678589
			]
		},
		{
			"mesh":6,
			"name":"OpenDoor1",
			"scale":[
				2,
				2,
				2
			],
			"translation":[
				0.8528991937637329,
				-0.004780278075486422,
				-1.463051676750183
			]
		},
		{
			"mesh":7,
			"name":"OpenDoor2",
			"rotation":[
				0,
				-0.7071068286895752,
				0,
				0.7071068286895752
			],
			"scale":[
				2,
				2,
				2
			],
			"translation":[
				-2.593909978866577,
				-0.004780278075486422,
				4.499539852142334
			]
		}
	],
	"meshes":[
		{
			"name":"Plane.003",
			"primitives":[
				{
					"attributes":{
						"POSITION":0,
						"NORMAL":1,
						"TEXCOORD_0":2
					},
					"indices":3
				}
			]
		},
		{
			"name":"Plane.002",
			"primitives":[
				{
					"attributes":{
						"POSITION":4,
						"NORMAL":5
					},
					"indices":6
				}
			]
		},
		{
			"name":"Cube.002",
			"primitives":[
				{
					"attributes":{
						"POSITION":7,
						"NORMAL":8,
						"TEXCOORD_0":9
					},
					"indices":10
				}
			]
		},
		{
			"name":"Cube.003",
			"primitives":[
				{
					"attributes":{
						"POSITION":11,
						"NORMAL":12,
						"TEXCOORD_0":13
					},
					"indices":14
				}
			]
		},
		{
			"name":"Cube.004",
			"primitives":[
				{
					"attributes":{
						"POSITION":15,
						"NORMAL":16,
						"TEXCOORD_0":17
					},
					"indices":10
				}
			]
		},
		{
			"name":"Cube.005",
			"primitives":[
				{
					"attributes":{
						"POSITION":18,
						"NORMAL":19,
						"TEXCOORD_0":20
					},
					"indices":10
				}
			]
		},
		{
			"name":"Cube.006",
			"primitives":[
				{
					"attributes":{
						"POSITION":21,
						"NORMAL":22,
						"TEXCOORD_0":23
					},
					"indices":14
				}
			]
		},
		{
			"name":"Cube.001",
			"primitives":[
				{
					"attributes":{
						"POSITION":24,
						"NORMAL":25,
						"TEXCOORD_0":26
					},
					"indices":10
				}
			]
		}
	],
	"accessors":[
		{
			"bufferView":0,
			"componentType":5126,
			"count":4,
			"max":[
				3.8776051998138428,
				0,
				2.9605660438537598
			],
			"min":[
				-4.324456691741943,
				0,
				-3.0238099098205566
			],
			"type":"VEC3"
		},
		{
			"bufferView":1,
			"componentType":5126,
			"count":4,
			"type":"VEC3"
		},
		{
			"bufferView":2,
			"componentType":5126,
			"count":4,
			"type":"VEC2"
		},
		{
			"bufferView":3,
			"componentType":5123,
			"count":6,
			"type":"SCALAR"
		},
		{
			"bufferView":4,
			"componentType":5126,
			"count":15976,
			"max":[
				4.085092067718506,
				1.5601633787155151,
				3.182650327682495
			],
			"min":[
				-4.521446704864502,
				-0.05926204100251198,
				-3.1937124729156494
			],
			"type":"VEC3"
		},
		{
			"bufferView":5,
			"componentType":5126,
			"count":15976,
			"type":"VEC3"
		},
		{
			"bufferView":6,
			"componentType":5123,
			"count":91392,
			"type":"SCALAR"
		},
		{
			"bufferView":7,
			"componentType":5126,
			"count":113,
			"max":[
				0.5276205539703369,
				1.601043939590454,
				0.21192684769630432
			],
			"min":[
				-0.5276205539703369,
				0,
				-0.21192684769630432
			],
			"type":"VEC3"
		},
		{
			"bufferView":8,
			"componentType":5126,
			"count":113,
			"type":"VEC3"
		},
		{
			"bufferView":9,
			"componentType":5126,
			"count":113,
			"type":"VEC2"
		},
		{
			"bufferView":10,
			"componentType":5123,
			"count":264,
			"type":"SCALAR"
		},
		{
			"bufferView":11,
			"componentType":5126,
			"count":94,
			"max":[
				0.5276205539703369,
				1.601043939590454,
				0.21192684769630432
			],
			"min":[
				-0.5276205539703369,
				0,
				-0.21192684769630432
			],
			"type":"VEC3"
		},
		{
			"bufferView":12,
			"componentType":5126,
			"count":94,
			"type":"VEC3"
		},
		{
			"bufferView":13,
			"componentType":5126,
			"count":94,
			"type":"VEC2"
		},
		{
			"bufferView":14,
			"componentType":5123,
			"count":240,
			"type":"SCALAR"
		},
		{
			"bufferView":15,
			"componentType":5126,
			"count":113,
			"max":[
				0.5276205539703369,
				1.601043939590454,
				0.21192684769630432
			],
			"min":[
				-0.5276205539703369,
				0,
				-0.21192684769630432
			],
			"type":"VEC3"
		},
		{
			"bufferView":16,
			"componentType":5126,
			"count":113,
			"type":"VEC3"
		},
		{
			"bufferView":17,
			"componentType":5126,
			"count":113,
			"type":"VEC2"
		},
		{
			"bufferView":18,
			"componentType":5126,
			"count":113,
			"max":[
				0.5276205539703369,
				1.601043939590454,
				0.21192684769630432
			],
			"min":[
				-0.5276205539703369,
				0,
				-0.21192684769630432
			],
			"type":"VEC3"
		},
		{
			"bufferView":19,
			"componentType":5126,
			"count":113,
			"type":"VEC3"
		},
		{
			"bufferView":20,
			"componentType":5126,
			"count":113,
			"type":"VEC2"
		},
		{
			"bufferView":21,
			"componentType":5126,
			"count":94,
			"max":[
				0.5276205539703369,
				1.601043939590454,
				0.21192684769630432
			],
			"min":[
				-0.5276205539703369,
				0,
				-0.21192684769630432
			],
			"type":"VEC3"
		},
		{
			"bufferView":22,
			"componentType":5126,
			"count":94,
			"type":"VEC3"
		},
		{
			"bufferView":23,
			"componentType":5126,
			"count":94,
			"type":"VEC2"
		},
		{
			"bufferView":24,
			"componentType":5126,
			"count":113,
			"max":[
				0.5276205539703369,
				1.601043939590454,
				0.21192684769630432
			],
			"min":[
				-0.5276205539703369,
				0,
				-0.21192684769630432
			],
			"type":"VEC3"
		},
		{
			"bufferView":25,
			"componentType":5126,
			"count":113,
			"type":"VEC3"
		},
		{
			"bufferView":26,
			"componentType":5126,
			"count":113,
			"type":"VEC2"
		}
	],
	"bufferViews":[
		{
			"buffer":0,
			"byteLength":48,
			"byteOffset":0,
			"target":34962
		},
		{
			"buffer":0,
			"byteLength":48,
			"byteOffset":48,
			"target":34962
		},
		{
			"buffer":0,
			"byteLength":32,
			"byteOffset":96,
			"target":34962
		},
		{
			"buffer":0,
			"byteLength":12,
			"byteOffset":128,
			"target":34963
		},
		{
			"buffer":0,
			"byteLength":191712,
			"byteOffset":140,
			"target":34962
		},
		{
			"buffer":0,
			"byteLength":191712,
			"byteOffset":191852,
			"target":34962
		},
		{
			"buffer":0,
			"byteLength":182784,
			"byteOffset":383564,
			"target":34963
		},
		{
			"buffer":0,
			"byteLength":1356,
			"byteOffset":566348,
			"target":34962
		},
		{
			"buffer":0,
			"byteLength":1356,
			"byteOffset":567704,
			"target":34962
		},
		{
			"buffer":0,
			"byteLength":904,
			"byteOffset":569060,
			"target":34962
		},
		{
			"buffer":0,
			"byteLength":528,
			"byteOffset":569964,
			"target":34963
		},
		{
			"buffer":0,
			"byteLength":1128,
			"byteOffset":570492,
			"target":34962
		},
		{
			"buffer":0,
			"byteLength":1128,
			"byteOffset":571620,
			"target":34962
		},
		{
			"buffer":0,
			"byteLength":752,
			"byteOffset":572748,
			"target":34962
		},
		{
			"buffer":0,
			"byteLength":480,
			"byteOffset":573500,
			"target":34963
		},
		{
			"buffer":0,
			"byteLength":1356,
			"byteOffset":573980,
			"target":34962
		},
		{
			"buffer":0,
			"byteLength":1356,
			"byteOffset":575336,
			"target":34962
		},
		{
			"buffer":0,
			"byteLength":904,
			"byteOffset":576692,
			"target":34962
		},
		{
			"buffer":0,
			"byteLength":1356,
			"byteOffset":577596,
			"target":34962
		},
		{
			"buffer":0,
			"byteLength":1356,
			"byteOffset":578952,
			"target":34962
		},
		{
			"buffer":0,
			"byteLength":904,
			"byteOffset":580308,
			"target":34962
		},
		{
			"buffer":0,
			"byteLength":1128,
			"byteOffset":581212,
			"target":34962
		},
		{
			"buffer":0,
			"byteLength":1128,
			"byteOffset":582340,
			"target":34962
		},
		{
			"buffer":0,
			"byteLength":752,
			"byteOffset":583468,
			"target":34962
		},
		{
			"buffer":0,
			"byteLength":1356,
			"byteOffset":584220,
			"target":34962
		},
		{
			"buffer":0,
			"byteLength":1356,
			"byteOffset":585576,
			"target":34962
		},
		{
			"buffer":0,
			"byteLength":904,
			"byteOffset":586932,
			"target":34962
		}
	],
	"buffers":[
		{
			"byteLength":587836,
			"uri":"test1.bin"
		}
	]
}
