{
	"asset":{
		"generator":"Khronos glTF Blender I/O v4.4.56",
		"version":"2.0"
	},
	"scene":0,
	"scenes":[
		{
			"name":"Scene",
			"nodes":[
				0
			]
		}
	],
	"nodes":[
		{
			"mesh":0,
			"name":"Tile",
			"scale":[
				2,
				2,
				2
			],
			"translation":[
				-0.001381171983666718,
				0,
				0
			]
		}
	],
	"meshes":[
		{
			"name":"HoneyComb.003",
			"primitives":[
				{
					"attributes":{
						"POSITION":0,
						"NORMAL":1
					},
					"indices":2
				}
			]
		}
	],
	"accessors":[
		{
			"bufferView":0,
			"componentType":5126,
			"count":13,
			"max":[
				0.4462341368198395,
				0.045412641018629074,
				0.5064122676849365
			],
			"min":[
				-0.4447912871837616,
				0.045412641018629074,
				-0.5080214738845825
			],
			"type":"VEC3"
		},
		{
			"bufferView":1,
			"componentType":5126,
			"count":13,
			"type":"VEC3"
		},
		{
			"bufferView":2,
			"componentType":5123,
			"count":36,
			"type":"SCALAR"
		}
	],
	"bufferViews":[
		{
			"buffer":0,
			"byteLength":156,
			"byteOffset":0,
			"target":34962
		},
		{
			"buffer":0,
			"byteLength":156,
			"byteOffset":156,
			"target":34962
		},
		{
			"buffer":0,
			"byteLength":72,
			"byteOffset":312,
			"target":34963
		}
	],
	"buffers":[
		{
			"byteLength":384,
			"uri":"tile.bin"
		}
	]
}
